REM DIRINDEX 1\2\6,1\2\7,1\2\8,1\2\9,1\3\10,1\3\11,1\4\12,1\4\13,1\4\14,1\5\15,1\5\16,1\5\17
REM DIRNAME folder01,folder02,folder03,folder04,folder05,folder06,folder07,folder08,folder09,folder10,folder11,folder12,folder13,folder14,folder15,folder16,folder17
TITLE ""
FILE "1400_3_sec14_1348_1365.mp3" MP3
  TRACK 01 AUDIO
    TITLE "0:"
    INDEX 01 00:00:00
  TRACK 02 AUDIO
    TITLE "17:cjc029_7137"
    INDEX 01 00:00:15
  TRACK 03 AUDIO
    TITLE "0:"
    INDEX 01 00:02:14
  TRACK 04 AUDIO
    TITLE "16:cjc029_7138"
    INDEX 01 00:02:18
  TRACK 05 AUDIO
    TITLE "0:"
    INDEX 01 00:03:37
  TRACK 06 AUDIO
    TITLE "17:cjc029_7139"
    INDEX 01 00:04:25
  TRACK 07 AUDIO
    TITLE "0:"
    INDEX 01 00:07:49
  TRACK 08 AUDIO
    TITLE "16:cjc029_7140"
    INDEX 01 00:07:54
  TRACK 09 AUDIO
    TITLE "0:"
    INDEX 01 00:08:68
  TRACK 10 AUDIO
    TITLE "17:cjc029_7141"
    INDEX 01 00:09:49
  TRACK 11 AUDIO
    TITLE "0:"
    INDEX 01 00:10:65
  TRACK 12 AUDIO
    TITLE "16:cjc029_7142"
    INDEX 01 00:10:68
  TRACK 13 AUDIO
    TITLE "0:"
    INDEX 01 00:12:11
  TRACK 14 AUDIO
    TITLE "17:cjc029_7143"
    INDEX 01 00:12:71
  TRACK 15 AUDIO
    TITLE "0:"
    INDEX 01 00:14:47
  TRACK 16 AUDIO
    TITLE "16:cjc029_7144"
    INDEX 01 00:14:51
  TRACK 17 AUDIO
    TITLE "0:"
    INDEX 01 00:15:38
  TRACK 18 AUDIO
    TITLE "17:cjc029_7145"
    INDEX 01 00:16:36
  TRACK 19 AUDIO
    TITLE "0:"
    INDEX 01 00:19:01
  TRACK 20 AUDIO
    TITLE "16:cjc029_7146"
    INDEX 01 00:19:07
  TRACK 21 AUDIO
    TITLE "0:"
    INDEX 01 00:20:32
  TRACK 22 AUDIO
    TITLE "17:cjc029_7147"
    INDEX 01 00:21:19
  TRACK 23 AUDIO
    TITLE "0:"
    INDEX 01 00:22:19
  TRACK 24 AUDIO
    TITLE "16:cjc029_7148"
    INDEX 01 00:22:21
  TRACK 25 AUDIO
    TITLE "0:"
    INDEX 01 00:23:55
  TRACK 26 AUDIO
    TITLE "17:cjc029_7149"
    INDEX 01 00:24:39
  TRACK 27 AUDIO
    TITLE "0:"
    INDEX 01 00:25:52
  TRACK 28 AUDIO
    TITLE "16:cjc029_7150"
    INDEX 01 00:25:58
  TRACK 29 AUDIO
    TITLE "0:"
    INDEX 01 00:27:10
  TRACK 30 AUDIO
    TITLE "17:cjc029_7151"
    INDEX 01 00:27:67
  TRACK 31 AUDIO
    TITLE "0:"
    INDEX 01 00:29:50
  TRACK 32 AUDIO
    TITLE "16:cjc029_7152"
    INDEX 01 00:29:56
  TRACK 33 AUDIO
    TITLE "0:"
    INDEX 01 00:30:65
  TRACK 34 AUDIO
    TITLE "17:cjc029_7153"
    INDEX 01 00:31:51
  TRACK 35 AUDIO
    TITLE "0:"
    INDEX 01 00:32:58
  TRACK 36 AUDIO
    TITLE "16:cjc029_7154"
    INDEX 01 00:32:68
  TRACK 37 AUDIO
    TITLE "0:"
    INDEX 01 00:34:22
  TRACK 38 AUDIO
    TITLE "17:cjc029_7155"
    INDEX 01 00:35:06
  TRACK 39 AUDIO
    TITLE "0:"
    INDEX 01 00:36:31
  TRACK 40 AUDIO
    TITLE "16:cjc029_7156"
    INDEX 01 00:36:35
  TRACK 41 AUDIO
    TITLE "0:"
    INDEX 01 00:37:56
  TRACK 42 AUDIO
    TITLE "17:cjc029_7157"
    INDEX 01 00:38:39
  TRACK 43 AUDIO
    TITLE "0:"
    INDEX 01 00:40:44
  TRACK 44 AUDIO
    TITLE "16:cjc029_7158"
    INDEX 01 00:40:50
  TRACK 45 AUDIO
    TITLE "0:"
    INDEX 01 00:41:55
  TRACK 46 AUDIO
    TITLE "17:cjc029_7159"
    INDEX 01 00:42:39
  TRACK 47 AUDIO
    TITLE "0:"
    INDEX 01 00:43:44
  TRACK 48 AUDIO
    TITLE "16:cjc029_7160"
    INDEX 01 00:43:50
  TRACK 49 AUDIO
    TITLE "0:"
    INDEX 01 00:45:16
  TRACK 50 AUDIO
    TITLE "17:cjc029_7161"
    INDEX 01 00:46:00
  TRACK 51 AUDIO
    TITLE "0:"
    INDEX 01 00:47:07
  TRACK 52 AUDIO
    TITLE "16:cjc029_7162"
    INDEX 01 00:47:13
  TRACK 53 AUDIO
    TITLE "0:"
    INDEX 01 00:48:28
  TRACK 54 AUDIO
    TITLE "17:cjc029_7163"
    INDEX 01 00:49:10
  TRACK 55 AUDIO
    TITLE "0:"
    INDEX 01 00:50:13
  TRACK 56 AUDIO
    TITLE "16:cjc029_7164"
    INDEX 01 00:50:19
  TRACK 57 AUDIO
    TITLE "0:"
    INDEX 01 00:51:46
  TRACK 58 AUDIO
    TITLE "17:cjc029_7165"
    INDEX 01 00:52:32
  TRACK 59 AUDIO
    TITLE "0:"
    INDEX 01 00:54:52
  TRACK 60 AUDIO
    TITLE "16:cjc029_7166"
    INDEX 01 00:54:58
  TRACK 61 AUDIO
    TITLE "0:"
    INDEX 01 00:56:10
  TRACK 62 AUDIO
    TITLE "17:cjc029_7167"
    INDEX 01 00:56:67
  TRACK 63 AUDIO
    TITLE "0:"
    INDEX 01 00:59:43
  TRACK 64 AUDIO
    TITLE "16:cjc029_7168"
    INDEX 01 00:59:49
  TRACK 65 AUDIO
    TITLE "0:"
    INDEX 01 01:00:49
  TRACK 66 AUDIO
    TITLE "17:cjc029_7169"
    INDEX 01 01:01:34
  TRACK 67 AUDIO
    TITLE "0:"
    INDEX 01 01:02:52
  TRACK 68 AUDIO
    TITLE "16:cjc029_7170"
    INDEX 01 01:02:55
  TRACK 69 AUDIO
    TITLE "0:"
    INDEX 01 01:04:07
  TRACK 70 AUDIO
    TITLE "17:cjc029_7171"
    INDEX 01 01:04:68
  TRACK 71 AUDIO
    TITLE "0:"
    INDEX 01 01:06:22
  TRACK 72 AUDIO
    TITLE "16:cjc029_7172"
    INDEX 01 01:06:28
  TRACK 73 AUDIO
    TITLE "0:"
    INDEX 01 01:07:61
